TITLE ""
FILE "1Q_t_1588-1600.mp3" MP3
  TRACK 01 AUDIO
    TITLE "1Q_t_1588-1600_01"
    INDEX 01 00:00:00
  TRACK 02 AUDIO
    TITLE "1Q_t_1588-1600_02"
    INDEX 01 00:01:33
  TRACK 03 AUDIO
    TITLE "1Q_t_1588-1600_03"
    INDEX 01 00:01:41
  TRACK 04 AUDIO
    TITLE "1Q_t_1588-1600_04"
    INDEX 01 00:02:70
  TRACK 05 AUDIO
    TITLE "1Q_t_1588-1600_05"
    INDEX 01 00:03:01
  TRACK 06 AUDIO
    TITLE "1Q_t_1588-1600_06"
    INDEX 01 00:08:73
  TRACK 07 AUDIO
    TITLE "1Q_t_1588-1600_07"
    INDEX 01 00:09:41
  TRACK 08 AUDIO
    TITLE "1Q_t_1588-1600_08"
    INDEX 01 00:10:66
  TRACK 09 AUDIO
    TITLE "1Q_t_1588-1600_09"
    INDEX 01 00:10:75
  TRACK 10 AUDIO
    TITLE "1Q_t_1588-1600_10"
    INDEX 01 00:12:31
  TRACK 11 AUDIO
    TITLE "1Q_t_1588-1600_11"
    INDEX 01 00:12:37
  TRACK 12 AUDIO
    TITLE "1Q_t_1588-1600_12"
    INDEX 01 00:17:15
  TRACK 13 AUDIO
    TITLE "1Q_t_1588-1600_13"
    INDEX 01 00:17:60
  TRACK 14 AUDIO
    TITLE "1Q_t_1588-1600_14"
    INDEX 01 00:18:57
  TRACK 15 AUDIO
    TITLE "1Q_t_1588-1600_15"
    INDEX 01 00:18:63
  TRACK 16 AUDIO
    TITLE "1Q_t_1588-1600_16"
    INDEX 01 00:20:74
  TRACK 17 AUDIO
    TITLE "1Q_t_1588-1600_17"
    INDEX 01 00:21:07
  TRACK 18 AUDIO
    TITLE "1Q_t_1588-1600_18"
    INDEX 01 00:25:36
  TRACK 19 AUDIO
    TITLE "1Q_t_1588-1600_19"
    INDEX 01 00:26:08
  TRACK 20 AUDIO
    TITLE "1Q_t_1588-1600_20"
    INDEX 01 00:27:19
  TRACK 21 AUDIO
    TITLE "1Q_t_1588-1600_21"
    INDEX 01 00:27:27
  TRACK 22 AUDIO
    TITLE "1Q_t_1588-1600_22"
    INDEX 01 00:29:41
  TRACK 23 AUDIO
    TITLE "1Q_t_1588-1600_23"
    INDEX 01 00:29:49
  TRACK 24 AUDIO
    TITLE "1Q_t_1588-1600_24"
    INDEX 01 00:33:29
  TRACK 25 AUDIO
    TITLE "1Q_t_1588-1600_25"
    INDEX 01 00:34:01
  TRACK 26 AUDIO
    TITLE "1Q_t_1588-1600_26"
    INDEX 01 00:35:05
  TRACK 27 AUDIO
    TITLE "1Q_t_1588-1600_27"
    INDEX 01 00:35:11
  TRACK 28 AUDIO
    TITLE "1Q_t_1588-1600_28"
    INDEX 01 00:37:74
  TRACK 29 AUDIO
    TITLE "1Q_t_1588-1600_29"
    INDEX 01 00:38:05
  TRACK 30 AUDIO
    TITLE "1Q_t_1588-1600_30"
    INDEX 01 00:42:44
  TRACK 31 AUDIO
    TITLE "1Q_t_1588-1600_31"
    INDEX 01 00:43:14
  TRACK 32 AUDIO
    TITLE "1Q_t_1588-1600_32"
    INDEX 01 00:44:21
  TRACK 33 AUDIO
    TITLE "1Q_t_1588-1600_33"
    INDEX 01 00:44:33
  TRACK 34 AUDIO
    TITLE "1Q_t_1588-1600_34"
    INDEX 01 00:46:61
  TRACK 35 AUDIO
    TITLE "1Q_t_1588-1600_35"
    INDEX 01 00:46:67
  TRACK 36 AUDIO
    TITLE "1Q_t_1588-1600_36"
    INDEX 01 00:52:27
  TRACK 37 AUDIO
    TITLE "1Q_t_1588-1600_37"
    INDEX 01 00:52:72
  TRACK 38 AUDIO
    TITLE "1Q_t_1588-1600_38"
    INDEX 01 00:54:04
  TRACK 39 AUDIO
    TITLE "1Q_t_1588-1600_39"
    INDEX 01 00:54:12
  TRACK 40 AUDIO
    TITLE "1Q_t_1588-1600_40"
    INDEX 01 00:57:59
  TRACK 41 AUDIO
    TITLE "1Q_t_1588-1600_41"
    INDEX 01 00:57:67
  TRACK 42 AUDIO
    TITLE "1Q_t_1588-1600_42"
    INDEX 01 01:01:65
  TRACK 43 AUDIO
    TITLE "1Q_t_1588-1600_43"
    INDEX 01 01:02:35
  TRACK 44 AUDIO
    TITLE "1Q_t_1588-1600_44"
    INDEX 01 01:03:56
  TRACK 45 AUDIO
    TITLE "1Q_t_1588-1600_45"
    INDEX 01 01:03:62
  TRACK 46 AUDIO
    TITLE "1Q_t_1588-1600_46"
    INDEX 01 01:06:54
  TRACK 47 AUDIO
    TITLE "1Q_t_1588-1600_47"
    INDEX 01 01:06:62
  TRACK 48 AUDIO
    TITLE "1Q_t_1588-1600_48"
    INDEX 01 01:11:30
  TRACK 49 AUDIO
    TITLE "1Q_t_1588-1600_49"
    INDEX 01 01:11:75
  TRACK 50 AUDIO
    TITLE "1Q_t_1588-1600_50"
    INDEX 01 01:13:11
  TRACK 51 AUDIO
    TITLE "1Q_t_1588-1600_51"
    INDEX 01 01:13:21
  TRACK 52 AUDIO
    TITLE "1Q_t_1588-1600_52"
    INDEX 01 01:14:52
  TRACK 53 AUDIO
    TITLE "1Q_t_1588-1600_53"
    INDEX 01 01:14:58
  TRACK 54 AUDIO
    TITLE "1Q_t_1588-1600_54"
    INDEX 01 01:20:17
  TRACK 55 AUDIO
    TITLE "1Q_t_1588-1600_55"
    INDEX 01 01:20:62
  TRACK 56 AUDIO
    TITLE "1Q_t_1588-1600_56"
    INDEX 01 01:21:75
  TRACK 57 AUDIO
    TITLE "1Q_t_1588-1600_57"
    INDEX 01 01:22:08
  TRACK 58 AUDIO
    TITLE "1Q_t_1588-1600_58"
    INDEX 01 01:23:33
  TRACK 59 AUDIO
    TITLE "1Q_t_1588-1600_59"
    INDEX 01 01:23:39
  TRACK 60 AUDIO
    TITLE "1Q_t_1588-1600_60"
    INDEX 01 01:28:70
  TRACK 61 AUDIO
    TITLE "1Q_t_1588-1600_61"
    INDEX 01 01:29:40
  TRACK 62 AUDIO
    TITLE "1Q_t_1588-1600_62"
    INDEX 01 01:30:70
  TRACK 63 AUDIO
    TITLE "1Q_t_1588-1600_63"
    INDEX 01 01:31:05
  TRACK 64 AUDIO
    TITLE "1Q_t_1588-1600_64"
    INDEX 01 01:35:30
  TRACK 65 AUDIO
    TITLE "1Q_t_1588-1600_65"
    INDEX 01 01:35:36
  TRACK 66 AUDIO
    TITLE "1Q_t_1588-1600_66"
    INDEX 01 01:39:46
  TRACK 67 AUDIO
    TITLE "1Q_t_1588-1600_67"
    INDEX 01 01:40:16
  TRACK 68 AUDIO
    TITLE "1Q_t_1588-1600_68"
    INDEX 01 01:41:21
  TRACK 69 AUDIO
    TITLE "1Q_t_1588-1600_69"
    INDEX 01 01:41:64
  TRACK 70 AUDIO
    TITLE "1Q_t_1588-1600_70"
    INDEX 01 01:43:06
  TRACK 71 AUDIO
    TITLE "1Q_t_1588-1600_71"
    INDEX 01 01:43:12
  TRACK 72 AUDIO
    TITLE "1Q_t_1588-1600_72"
    INDEX 01 01:45:52
  TRACK 73 AUDIO
    TITLE "1Q_t_1588-1600_73"
    INDEX 01 01:45:58
  TRACK 74 AUDIO
    TITLE "1Q_t_1588-1600_74"
    INDEX 01 01:50:16
  TRACK 75 AUDIO
    TITLE "1Q_t_1588-1600_75"
    INDEX 01 01:50:61
  TRACK 76 AUDIO
    TITLE "1Q_t_1588-1600_76"
    INDEX 01 01:52:33
  TRACK 77 AUDIO
    TITLE "1Q_t_1588-1600_77"
    INDEX 01 01:52:41
  TRACK 78 AUDIO
    TITLE "1Q_t_1588-1600_78"
    INDEX 01 01:54:53
  TRACK 79 AUDIO
    TITLE "1Q_t_1588-1600_79"
    INDEX 01 01:54:59
  TRACK 80 AUDIO
    TITLE "1Q_t_1588-1600_80"
    INDEX 01 02:02:06
